# xmcd
#
# Track frame offsets:
#	150
#	11578
#	17453
#	24461
#	31814
#	41286
#	48584
#	55505
#	63528
#	70166
#	79686
#	95135
#	105280
#	111652
#	127996
#	141651
#	147737
#	154604
#	162476
#	173502
#	181858
#	189045
#	196681
#	202984
#	211941
#	233108
#	242628
#
# Disc length: 3319 seconds
#
# Revision: 0
# Processed by: cddbd v1.5.1PL2 Copyright (c) Steve Scherf et al.
# Submitted via: dBpowerAMP V4.0
#
DISCID=650cf51b
DTITLE=Paul Austerlitz and Michael S Haper - Double Take
DYEAR=1900
DGENRE=
TTITLE0=Brother John
TTITLE1=We Assume: On the Death of Our Son, Reuben Masai Harper
TTITLE2=Here where Coltrane Is
TTITLE3=Bird Lives: Charles Parker in St. Louis
TTITLE4=High Modes: Vision as Ritual: Confirmation
TTITLE5=Elvin's Blues
TTITLE6=Last Affair: Bessie' Blues Song
TTITLE7=Audio for Julius Hemphill
TTITLE8=If You Don't Force It, inspired by Ray Brown
TTITLE9=Copenhagen, dedicated to Dexter Gordon
TTITLE10=4-29-99 for EKE
TTITLE11=The Latin American Poem fo Anani Dzidzienyo
TTITLE12=Release: Kind of Blue
TTITLE13=Interlude
TTITLE14=Brother John
TTITLE15=We Assume: On the Death of Our Son, Reuben Masai Harper
TTITLE16=Here where Coltrane Is
TTITLE17=Bird Lives: Charles Parker in St. Louis
TTITLE18=High Modes: Vision as Ritual: Confirmation
TTITLE19=Elvin's Blues
TTITLE20=Last Affair: Bessie' Blues Song
TTITLE21=Audio for Julius Hemphill
TTITLE22=If You Don't Force It, inspired by Ray Brown
TTITLE23=Copenhagen, dedicated to Dexter Gordon
TTITLE24=4-29-99 for EKE
TTITLE25=The Latin American Poem fo Anani Dzidzienyo
TTITLE26=Release: Kind of Blue
EXTD=
EXTT0=
EXTT1=
EXTT2=
EXTT3=
EXTT4=
EXTT5=
EXTT6=
EXTT7=
EXTT8=
EXTT9=
EXTT10=
EXTT11=
EXTT12=
EXTT13=
EXTT14=
EXTT15=
EXTT16=
EXTT17=
EXTT18=
EXTT19=
EXTT20=
EXTT21=
EXTT22=
EXTT23=
EXTT24=
EXTT25=
EXTT26=
PLAYORDER=
